<svg width="104" height="104" viewBox="0 0 104 104" fill="none" xmlns="http://www.w3.org/2000/svg">
<path d="M13 49.5625H26C26.6464 49.5623 27.2663 49.3055 27.7234 48.8484C28.1805 48.3913 28.4373 47.7714 28.4375 47.125V34.125C28.4373 33.4786 28.1805 32.8587 27.7234 32.4016C27.2663 31.9445 26.6464 31.6877 26 31.6875H13C12.3536 31.6877 11.7337 31.9445 11.2766 32.4016C10.8195 32.8587 10.5627 33.4786 10.5625 34.125V47.125C10.5627 47.7714 10.8195 48.3913 11.2766 48.8484C11.7337 49.3055 12.3536 49.5623 13 49.5625ZM15.4375 36.5625H23.5625V44.6875H15.4375V36.5625Z" fill="black"/>
<path d="M35.75 73.9375H48.75C49.3964 73.9373 50.0163 73.6805 50.4734 73.2234C50.9305 72.7663 51.1873 72.1464 51.1875 71.5V58.5C51.1873 57.8536 50.9305 57.2337 50.4734 56.7766C50.0163 56.3195 49.3964 56.0627 48.75 56.0625H35.75C35.1036 56.0627 34.4837 56.3195 34.0266 56.7766C33.5695 57.2337 33.3127 57.8536 33.3125 58.5V71.5C33.3127 72.1464 33.5695 72.7663 34.0266 73.2234C34.4837 73.6805 35.1036 73.9373 35.75 73.9375ZM38.1875 60.9375H46.3125V69.0625H38.1875V60.9375Z" fill="black"/>
<path d="M10.5625 71.5C10.5627 72.1464 10.8195 72.7663 11.2766 73.2234C11.7337 73.6805 12.3536 73.9373 13 73.9375H26C26.6464 73.9373 27.2663 73.6805 27.7234 73.2234C28.1805 72.7663 28.4373 72.1464 28.4375 71.5V58.5C28.4373 57.8536 28.1805 57.2337 27.7234 56.7766C27.2663 56.3195 26.6464 56.0627 26 56.0625H13C12.3536 56.0627 11.7337 56.3195 11.2766 56.7766C10.8195 57.2337 10.5627 57.8536 10.5625 58.5V71.5ZM15.4375 60.9375H23.5625V69.0625H15.4375V60.9375Z" fill="black"/>
<path d="M68.25 31.6875H55.25C54.6036 31.6877 53.9837 31.9445 53.5266 32.4016C53.0695 32.8587 52.8127 33.4786 52.8125 34.125V47.125C52.8127 47.7714 53.0695 48.3913 53.5266 48.8484C53.9837 49.3055 54.6036 49.5623 55.25 49.5625H68.25C68.8964 49.5623 69.5163 49.3055 69.9734 48.8484C70.4305 48.3913 70.6873 47.7714 70.6875 47.125V34.125C70.6873 33.4786 70.4305 32.8587 69.9734 32.4016C69.5163 31.9445 68.8964 31.6877 68.25 31.6875ZM65.8125 44.6875H57.6875V36.5625H65.8125V44.6875Z" fill="black"/>
<path d="M91 31.6875H78C77.3536 31.6877 76.7337 31.9445 76.2766 32.4016C75.8195 32.8587 75.5627 33.4786 75.5625 34.125V47.125C75.5627 47.7714 75.8195 48.3913 76.2766 48.8484C76.7337 49.3055 77.3536 49.5623 78 49.5625H91C91.6464 49.5623 92.2663 49.3055 92.7234 48.8484C93.1805 48.3913 93.4373 47.7714 93.4375 47.125V34.125C93.4373 33.4786 93.1805 32.8587 92.7234 32.4016C92.2663 31.9445 91.6464 31.6877 91 31.6875ZM88.5625 44.6875H80.4375V36.5625H88.5625V44.6875Z" fill="black"/>
<path d="M95.875 7.3125H88.5625V3.25C88.5625 2.60353 88.3057 1.98355 87.8486 1.52643C87.3915 1.06931 86.7715 0.8125 86.125 0.8125C85.4785 0.8125 84.8585 1.06931 84.4014 1.52643C83.9443 1.98355 83.6875 2.60353 83.6875 3.25V7.3125H65.8125V3.25C65.8125 2.60353 65.5557 1.98355 65.0986 1.52643C64.6415 1.06931 64.0215 0.8125 63.375 0.8125C62.7285 0.8125 62.1085 1.06931 61.6514 1.52643C61.1943 1.98355 60.9375 2.60353 60.9375 3.25V7.3125H43.0625V3.25C43.0625 2.60353 42.8057 1.98355 42.3486 1.52643C41.8915 1.06931 41.2715 0.8125 40.625 0.8125C39.9785 0.8125 39.3585 1.06931 38.9014 1.52643C38.4443 1.98355 38.1875 2.60353 38.1875 3.25V7.3125H20.3125V3.25C20.3125 2.60353 20.0557 1.98355 19.5986 1.52643C19.1415 1.06931 18.5215 0.8125 17.875 0.8125C17.2285 0.8125 16.6085 1.06931 16.1514 1.52643C15.6943 1.98355 15.4375 2.60353 15.4375 3.25V7.3125H8.125C6.18625 7.31461 4.32752 8.08571 2.95661 9.45661C1.58571 10.8275 0.814612 12.6863 0.8125 14.625V89.375C0.814612 91.3137 1.58571 93.1725 2.95661 94.5434C4.32752 95.9143 6.18625 96.6854 8.125 96.6875H55.25C55.8965 96.6875 56.5165 96.4307 56.9736 95.9736C57.4307 95.5165 57.6875 94.8965 57.6875 94.25C57.6875 93.6035 57.4307 92.9835 56.9736 92.5264C56.5165 92.0693 55.8965 91.8125 55.25 91.8125H8.125C7.47875 91.8118 6.85917 91.5548 6.40221 91.0978C5.94524 90.6408 5.68821 90.0212 5.6875 89.375V25.1875H98.3125V49.6038C98.3125 50.2502 98.5693 50.8702 99.0264 51.3273C99.4835 51.7845 100.104 52.0413 100.75 52.0413C101.396 52.0413 102.016 51.7845 102.474 51.3273C102.931 50.8702 103.188 50.2502 103.188 49.6038V14.625C103.185 12.6863 102.414 10.8275 101.043 9.45661C99.6725 8.08571 97.8137 7.31461 95.875 7.3125ZM5.6875 20.3125V14.625C5.68821 13.9788 5.94524 13.3592 6.40221 12.9022C6.85917 12.4452 7.47875 12.1882 8.125 12.1875H15.4375V14.625C15.4375 15.2715 15.6943 15.8915 16.1514 16.3486C16.6085 16.8057 17.2285 17.0625 17.875 17.0625C18.5215 17.0625 19.1415 16.8057 19.5986 16.3486C20.0557 15.8915 20.3125 15.2715 20.3125 14.625V12.1875H38.1875V14.625C38.1875 15.2715 38.4443 15.8915 38.9014 16.3486C39.3585 16.8057 39.9785 17.0625 40.625 17.0625C41.2715 17.0625 41.8915 16.8057 42.3486 16.3486C42.8057 15.8915 43.0625 15.2715 43.0625 14.625V12.1875H60.9375V14.625C60.9375 15.2715 61.1943 15.8915 61.6514 16.3486C62.1085 16.8057 62.7285 17.0625 63.375 17.0625C64.0215 17.0625 64.6415 16.8057 65.0986 16.3486C65.5557 15.8915 65.8125 15.2715 65.8125 14.625V12.1875H83.6875V14.625C83.6875 15.2715 83.9443 15.8915 84.4014 16.3486C84.8585 16.8057 85.4785 17.0625 86.125 17.0625C86.7715 17.0625 87.3915 16.8057 87.8486 16.3486C88.3057 15.8915 88.5625 15.2715 88.5625 14.625V12.1875H95.875C96.5212 12.1882 97.1408 12.4452 97.5978 12.9022C98.0548 13.3592 98.3118 13.9788 98.3125 14.625V20.3125H5.6875Z" fill="black"/>
<path d="M41.1176 46.7092L47.6176 35.3342C47.9383 34.7728 48.0228 34.1069 47.8526 33.4831C47.6824 32.8594 47.2713 32.3287 46.7099 32.008C46.1484 31.6873 45.4826 31.6028 44.8588 31.773C44.235 31.9433 43.7044 32.3543 43.3837 32.9157L38.7245 41.0693L36.076 37.5368C35.6879 37.0196 35.1103 36.6777 34.4701 36.5863C33.83 36.4949 33.1798 36.6616 32.6625 37.0497C32.1453 37.4377 31.8033 38.0153 31.712 38.6555C31.6206 39.2956 31.7873 39.9459 32.1753 40.4631L37.0503 46.9631C37.293 47.2861 37.6121 47.5438 37.9791 47.713C38.346 47.8822 38.7491 47.9576 39.1524 47.9324C39.5556 47.9072 39.9463 47.7823 40.2893 47.5688C40.6324 47.3553 40.917 47.0599 41.1176 46.7092Z" fill="black"/>
<path d="M13 85.3125H30.875C31.5215 85.3125 32.1415 85.0557 32.5986 84.5986C33.0557 84.1415 33.3125 83.5215 33.3125 82.875C33.3125 82.2285 33.0557 81.6085 32.5986 81.1514C32.1415 80.6943 31.5215 80.4375 30.875 80.4375H13C12.3535 80.4375 11.7335 80.6943 11.2764 81.1514C10.8193 81.6085 10.5625 82.2285 10.5625 82.875C10.5625 83.5215 10.8193 84.1415 11.2764 84.5986C11.7335 85.0557 12.3535 85.3125 13 85.3125Z" fill="black"/>
<path d="M67.0313 73.9581C67.0275 77.9057 68.2323 81.7597 70.4837 85.0023C72.7351 88.2448 75.9251 90.7205 79.625 92.0966C83.3249 90.7205 86.515 88.2448 88.7663 85.0023C91.0177 81.7597 92.2225 77.9057 92.2188 73.9581V67.0312H67.0313V73.9581ZM74.75 75.9688H77.5938V73.125C77.5938 72.5863 77.8078 72.0696 78.1887 71.6887C78.5696 71.3078 79.0863 71.0938 79.625 71.0938C80.1637 71.0938 80.6804 71.3078 81.0613 71.6887C81.4423 72.0696 81.6563 72.5863 81.6563 73.125V75.9688H84.5C85.0387 75.9688 85.5554 76.1828 85.9363 76.5637C86.3173 76.9446 86.5313 77.4613 86.5313 78C86.5313 78.5387 86.3173 79.0554 85.9363 79.4363C85.5554 79.8172 85.0387 80.0312 84.5 80.0312H81.6563V82.875C81.6563 83.4137 81.4423 83.9304 81.0613 84.3113C80.6804 84.6922 80.1637 84.9062 79.625 84.9062C79.0863 84.9062 78.5696 84.6922 78.1887 84.3113C77.8078 83.9304 77.5938 83.4137 77.5938 82.875V80.0312H74.75C74.2113 80.0312 73.6946 79.8172 73.3137 79.4363C72.9328 79.0554 72.7188 78.5387 72.7188 78C72.7188 77.4613 72.9328 76.9446 73.3137 76.5637C73.6946 76.1828 74.2113 75.9688 74.75 75.9688Z" fill="#8870E6"/>
<path d="M95.8752 56.0625H63.3752C61.4364 56.0646 59.5777 56.8357 58.2068 58.2066C56.8359 59.5775 56.0648 61.4363 56.0627 63.375V74.1946C56.0382 80.915 58.3048 87.4432 62.4887 92.7025C66.6725 97.9618 72.5238 101.638 79.0777 103.126C79.438 103.208 79.8124 103.208 80.1727 103.126C86.7265 101.638 92.5778 97.9618 96.7617 92.7025C100.946 87.4432 103.212 80.915 103.188 74.1946V63.375C103.186 61.4363 102.414 59.5775 101.044 58.2066C99.6727 56.8357 97.8139 56.0646 95.8752 56.0625ZM96.2814 73.9581C96.286 78.8746 94.7412 83.6676 91.8665 87.6561C88.9919 91.6446 84.9335 94.6259 80.2679 96.1765C79.8508 96.3162 79.3996 96.3162 78.9825 96.1765C74.3169 94.626 70.2585 91.6447 67.3839 87.6561C64.5092 83.6676 62.9644 78.8747 62.9689 73.9581V65C62.9689 64.7332 63.0215 64.4691 63.1235 64.2227C63.2256 63.9762 63.3752 63.7523 63.5638 63.5636C63.7525 63.375 63.9764 63.2254 64.2228 63.1233C64.4693 63.0213 64.7334 62.9687 65.0002 62.9688H94.2502C94.5169 62.9687 94.7811 63.0213 95.0275 63.1233C95.274 63.2254 95.4979 63.375 95.6865 63.5636C95.8752 63.7523 96.0248 63.9762 96.1269 64.2227C96.2289 64.4691 96.2815 64.7332 96.2814 65V73.9581Z" fill="#8870E6"/>
</svg>
