<svg width="20" height="20" viewBox="0 0 20 20" fill="none" xmlns="http://www.w3.org/2000/svg">
<path d="M2.48093 18.3331C2.31995 18.3332 2.16259 18.2855 2.02873 18.196C1.89488 18.1066 1.79055 17.9795 1.72895 17.8308C1.66734 17.6821 1.65122 17.5184 1.68264 17.3606C1.71405 17.2027 1.79158 17.0577 1.90542 16.9438L16.9441 1.90513C17.0968 1.7525 17.3038 1.66675 17.5196 1.66675C17.7355 1.66675 17.9425 1.7525 18.0951 1.90513C18.2478 2.05777 18.3335 2.26478 18.3335 2.48064C18.3335 2.6965 18.2478 2.90351 18.0951 3.05615L3.05644 18.0949C2.98093 18.1705 2.89122 18.2305 2.79245 18.2714C2.69369 18.3123 2.58782 18.3333 2.48093 18.3331Z" fill="#0F0F0F"/>
<path d="M17.5196 18.3331C17.4127 18.3333 17.3068 18.3123 17.2081 18.2714C17.1093 18.2305 17.0196 18.1705 16.9441 18.0949L1.90538 3.05615C1.75274 2.90351 1.66699 2.6965 1.66699 2.48064C1.66699 2.26478 1.75274 2.05777 1.90538 1.90513C2.05801 1.7525 2.26503 1.66675 2.48088 1.66675C2.69674 1.66675 2.90376 1.7525 3.05639 1.90513L18.0951 16.9438C18.2089 17.0577 18.2865 17.2027 18.3179 17.3606C18.3493 17.5184 18.3332 17.6821 18.2716 17.8308C18.21 17.9795 18.1056 18.1066 17.9718 18.196C17.8379 18.2855 17.6806 18.3332 17.5196 18.3331Z" fill="#0F0F0F"/>
</svg>
