<svg width="20" height="20" viewBox="0 0 20 20" fill="none" xmlns="http://www.w3.org/2000/svg">
<path d="M9.72431 15.7921L10.1602 16.4024V16.4024L9.72431 15.7921ZM9.7685 15.7607L9.33648 15.1476L9.7685 15.7607ZM12.1419 15.0001L12.1467 15.7501L12.1419 15.0001ZM6.16321 16.2585L6.85957 16.5371L6.16321 16.2585ZM7.54869 17.3461L7.11276 16.7358L7.54869 17.3461ZM18.165 12.0057L18.8847 12.2167L18.165 12.0057ZM15.339 14.8317L15.55 15.5514L15.339 14.8317ZM3.94167 2.1208L4.28216 2.78906L3.94167 2.1208ZM2.12077 3.9417L2.78902 4.2822L2.12077 3.9417ZM16.0583 2.1208L15.7178 2.78906L16.0583 2.1208ZM17.8792 3.9417L17.2109 4.2822L17.8792 3.9417ZM6.66663 9.25C6.25241 9.25 5.91663 9.58578 5.91663 10C5.91663 10.4142 6.25241 10.75 6.66663 10.75V9.25ZM13.3333 10.75C13.7475 10.75 14.0833 10.4142 14.0833 10C14.0833 9.58578 13.7475 9.25 13.3333 9.25V10.75ZM6.66663 5.91666C6.25241 5.91666 5.91663 6.25245 5.91663 6.66666C5.91663 7.08088 6.25241 7.41666 6.66663 7.41666L6.66663 5.91666ZM9.99996 7.41666C10.4142 7.41666 10.75 7.08088 10.75 6.66667C10.75 6.25245 10.4142 5.91666 9.99996 5.91666V7.41666ZM11.6666 0.916664H8.33329V2.41666H11.6666V0.916664ZM0.916626 8.33333V11.857H2.41663V8.33333H0.916626ZM19.0833 9.32018V8.33333H17.5833V9.32018H19.0833ZM4.80967 15.75H5.31114V14.25H4.80967V15.75ZM7.98462 17.9564L10.1602 16.4024L9.28838 15.1818L7.11276 16.7358L7.98462 17.9564ZM12.1961 15.75H12.6535V14.25H12.1961V15.75ZM10.1602 16.4024C10.1832 16.386 10.192 16.3797 10.2005 16.3738L9.33648 15.1476C9.32316 15.157 9.3098 15.1665 9.28838 15.1818L10.1602 16.4024ZM12.1961 14.25C12.1698 14.25 12.1534 14.25 12.1371 14.2501L12.1467 15.7501C12.1571 15.75 12.1679 15.75 12.1961 15.75V14.25ZM10.2005 16.3738C10.7704 15.9722 11.4495 15.7545 12.1467 15.7501L12.1371 14.2501C11.1338 14.2565 10.1566 14.5697 9.33648 15.1476L10.2005 16.3738ZM5.31114 15.75C5.42979 15.75 5.51092 15.8698 5.46685 15.98L6.85957 16.5371C7.29775 15.4416 6.49098 14.25 5.31114 14.25V15.75ZM5.46685 15.98C4.84827 17.5265 6.62928 18.9245 7.98462 17.9564L7.11276 16.7358C7.0653 16.7697 7.03252 16.7729 7.0108 16.7717C6.9826 16.7702 6.94633 16.7585 6.91173 16.7313C6.87712 16.7041 6.8571 16.6717 6.8489 16.6447C6.84259 16.6238 6.8379 16.5912 6.85957 16.5371L5.46685 15.98ZM17.5833 9.32018C17.5833 10.7806 17.5757 11.35 17.4453 11.7947L18.8847 12.2167C19.0909 11.5132 19.0833 10.675 19.0833 9.32018H17.5833ZM12.6535 15.75C14.0083 15.75 14.8465 15.7576 15.55 15.5514L15.128 14.112C14.6833 14.2424 14.1139 14.25 12.6535 14.25V15.75ZM17.4453 11.7947C17.1178 12.9113 16.2446 13.7845 15.128 14.112L15.55 15.5514C17.1569 15.0802 18.4135 13.8236 18.8847 12.2167L17.4453 11.7947ZM0.916626 11.857C0.916626 14.007 2.6596 15.75 4.80967 15.75V14.25C3.48803 14.25 2.41663 13.1786 2.41663 11.857H0.916626ZM8.33329 0.916664C7.17889 0.916664 6.26799 0.916081 5.53556 0.975922C4.79438 1.03648 4.17017 1.16263 3.60117 1.45255L4.28216 2.78906C4.60446 2.62484 5.00929 2.52392 5.65771 2.47094C6.31488 2.41725 7.15414 2.41666 8.33329 2.41666V0.916664ZM2.41663 8.33333C2.41663 7.15418 2.41721 6.31492 2.4709 5.65775C2.52388 5.00933 2.6248 4.6045 2.78902 4.2822L1.45251 3.60121C1.16259 4.17021 1.03644 4.79442 0.975884 5.5356C0.916043 6.26802 0.916626 7.17893 0.916626 8.33333H2.41663ZM3.60117 1.45255C2.67604 1.92393 1.92389 2.67608 1.45251 3.60121L2.78902 4.2822C3.11659 3.63931 3.63927 3.11663 4.28216 2.78906L3.60117 1.45255ZM11.6666 2.41666C12.8458 2.41666 13.685 2.41725 14.3422 2.47094C14.9906 2.52392 15.3955 2.62484 15.7178 2.78906L16.3987 1.45255C15.8297 1.16263 15.2055 1.03648 14.4644 0.975922C13.7319 0.916081 12.821 0.916664 11.6666 0.916664V2.41666ZM19.0833 8.33333C19.0833 7.17893 19.0839 6.26802 19.024 5.5356C18.9635 4.79442 18.8373 4.17021 18.5474 3.60121L17.2109 4.2822C17.3751 4.6045 17.476 5.00933 17.529 5.65775C17.5827 6.31492 17.5833 7.15418 17.5833 8.33333H19.0833ZM15.7178 2.78906C16.3606 3.11663 16.8833 3.63931 17.2109 4.2822L18.5474 3.60121C18.076 2.67608 17.3239 1.92393 16.3987 1.45255L15.7178 2.78906ZM6.66663 10.75H13.3333V9.25H6.66663V10.75ZM6.66663 7.41666L9.99996 7.41666V5.91666H6.66663L6.66663 7.41666Z" fill="black"/>
</svg>
