<svg width="24" height="24" viewBox="0 0 24 24" fill="none" xmlns="http://www.w3.org/2000/svg">
<path d="M0.188995 19.5314C0.21317 19.5272 0.237599 19.5246 0.26212 19.5236C0.691026 19.5306 1.11093 19.4003 1.46055 19.1517C1.99046 18.7941 2.61759 18.6082 3.2568 18.6193C3.8962 18.6082 4.52354 18.7941 5.0538 19.1516C5.40913 19.4039 5.83665 19.5345 6.27236 19.5236C6.70802 19.5345 7.13549 19.404 7.49074 19.1516C8.00608 18.8052 8.61301 18.6203 9.23395 18.6206C9.07456 17.9077 8.74599 17.2436 8.27598 16.6843C7.80597 16.1251 7.20831 15.6871 6.53346 15.4074V12.5625H6.77443C6.92361 12.5625 7.06669 12.5032 7.17217 12.3977C7.27766 12.2923 7.33693 12.1492 7.33693 12C7.33693 11.8508 7.27766 11.7077 7.17217 11.6023C7.06669 11.4968 6.92361 11.4375 6.77443 11.4375H2.75655C2.60736 11.4375 2.46429 11.4968 2.3588 11.6023C2.25331 11.7077 2.19405 11.8508 2.19405 12C2.19405 12.1492 2.25331 12.2923 2.3588 12.3977C2.46429 12.5032 2.60736 12.5625 2.75655 12.5625H2.9977V15.4074C2.1792 15.7472 1.47756 16.3183 0.978697 17.0508C0.479832 17.7833 0.205395 18.6453 0.188995 19.5314V19.5314Z" fill="#61C3FF"/>
<path d="M9.26908 19.7443C8.83979 19.7372 8.41949 19.8676 8.06956 20.1163C7.53924 20.4738 6.91184 20.6597 6.27238 20.6486C5.63291 20.6597 5.00551 20.4738 4.4752 20.1164C4.11992 19.864 3.69247 19.7335 3.25682 19.7443C2.82151 19.7335 2.39441 19.864 2.03953 20.1164C1.52474 20.4626 0.91836 20.6475 0.297943 20.6473C0.448768 21.3196 0.750428 21.9489 1.18013 22.4875C1.60984 23.0261 2.15634 23.4601 2.77836 23.7565C2.85462 23.7934 2.93826 23.8126 3.02299 23.8125H6.50803C6.59276 23.8126 6.6764 23.7934 6.75266 23.7565C7.51529 23.3933 8.1616 22.8247 8.61905 22.1146C9.07651 21.4045 9.327 20.581 9.34241 19.7365C9.31817 19.7407 9.29367 19.7433 9.26908 19.7443V19.7443Z" fill="#61C3FF"/>
<path d="M10.779 18.9375C10.6298 18.9375 10.4867 18.9968 10.3812 19.1023C10.2757 19.2077 10.2165 19.3508 10.2165 19.5C10.2165 19.6492 10.2757 19.7923 10.3812 19.8977C10.4867 20.0032 10.6298 20.0625 10.779 20.0625C10.8784 20.0626 10.9737 20.1022 11.044 20.1725C11.1143 20.2428 11.1538 20.3381 11.154 20.4375C11.154 20.5867 11.2132 20.7298 11.3187 20.8352C11.4242 20.9407 11.5673 21 11.7165 21C11.8656 21 12.0087 20.9407 12.1142 20.8352C12.2197 20.7298 12.279 20.5867 12.279 20.4375C12.2785 20.0398 12.1203 19.6585 11.8391 19.3773C11.5579 19.0961 11.1766 18.938 10.779 18.9375V18.9375Z" fill="black"/>
<path d="M15.9352 20.3438C15.786 20.3438 15.643 20.403 15.5375 20.5085C15.432 20.614 15.3727 20.7571 15.3727 20.9062C15.3727 21.0554 15.432 21.1985 15.5375 21.304C15.643 21.4095 15.786 21.4688 15.9352 21.4688C16.3329 21.4683 16.7142 21.3101 16.9954 21.0289C17.2766 20.7477 17.4348 20.3664 17.4352 19.9688C17.4352 19.8196 17.3759 19.6765 17.2705 19.571C17.165 19.4655 17.0219 19.4062 16.8727 19.4062C16.7235 19.4062 16.5805 19.4655 16.475 19.571C16.3695 19.6765 16.3102 19.8196 16.3102 19.9688C16.3101 20.0682 16.2705 20.1635 16.2002 20.2338C16.1299 20.3041 16.0346 20.3436 15.9352 20.3438V20.3438Z" fill="black"/>
<path d="M14.154 16.2188C14.154 16.0696 14.0947 15.9265 13.9892 15.821C13.8837 15.7155 13.7406 15.6562 13.5915 15.6562C13.4423 15.6562 13.2992 15.7155 13.1937 15.821C13.0882 15.9265 13.029 16.0696 13.029 16.2188C13.0288 16.3182 12.9893 16.4135 12.919 16.4838C12.8487 16.5541 12.7534 16.5936 12.654 16.5938C12.5048 16.5938 12.3617 16.653 12.2562 16.7585C12.1507 16.864 12.0915 17.0071 12.0915 17.1562C12.0915 17.3054 12.1507 17.4485 12.2562 17.554C12.3617 17.6595 12.5048 17.7188 12.654 17.7188C13.0516 17.7183 13.4329 17.5601 13.7141 17.2789C13.9953 16.9977 14.1535 16.6164 14.154 16.2188V16.2188Z" fill="black"/>
<path d="M17.8102 18.1875C17.9594 18.1875 18.1025 18.1282 18.208 18.0227C18.3134 17.9173 18.3727 17.7742 18.3727 17.625C18.3727 17.4758 18.3134 17.3327 18.208 17.2273C18.1025 17.1218 17.9594 17.0625 17.8102 17.0625C17.7108 17.0624 17.6155 17.0228 17.5452 16.9525C17.4749 16.8822 17.4353 16.7869 17.4352 16.6875C17.4352 16.5383 17.3759 16.3952 17.2705 16.2898C17.165 16.1843 17.0219 16.125 16.8727 16.125C16.7235 16.125 16.5805 16.1843 16.475 16.2898C16.3695 16.3952 16.3102 16.5383 16.3102 16.6875C16.3107 17.0852 16.4688 17.4665 16.7501 17.7477C17.0313 18.0289 17.4125 18.187 17.8102 18.1875V18.1875Z" fill="black"/>
<path d="M23.1941 19.3672L15.8415 10.3927V3.65625H16.3102C16.5588 3.65596 16.797 3.55709 16.9728 3.38134C17.1486 3.20559 17.2474 2.9673 17.2477 2.71875V1.125C17.2474 0.876449 17.1486 0.638162 16.9728 0.46241C16.797 0.286658 16.5588 0.187792 16.3102 0.1875H7.68521C7.43666 0.187792 7.19837 0.286658 7.02262 0.46241C6.84687 0.638162 6.748 0.876449 6.74771 1.125V2.71875C6.748 2.9673 6.84687 3.20559 7.02262 3.38134C7.19837 3.55709 7.43666 3.65596 7.68521 3.65625H8.15396V10.3927L7.78592 10.842C7.69137 10.9574 7.64653 11.1056 7.66126 11.2541C7.67599 11.4025 7.74909 11.5391 7.86447 11.6336C7.97986 11.7282 8.12808 11.773 8.27652 11.7583C8.42497 11.7435 8.56149 11.6704 8.65604 11.5551L9.15152 10.9503C9.23393 10.8497 9.27896 10.7237 9.27896 10.5938V3.65625H14.7165V10.5938C14.7165 10.7237 14.7615 10.8497 14.8439 10.9503L16.9517 13.523C15.5195 12.9114 14.2511 12.3945 12.2218 13.3678C10.6805 14.1079 9.74378 13.7648 8.44454 13.2019C8.30764 13.1426 8.1528 13.1401 8.01407 13.195C7.87534 13.2499 7.76409 13.3576 7.7048 13.4945C7.64551 13.6314 7.64302 13.7863 7.6979 13.925C7.75277 14.0637 7.86051 14.175 7.99741 14.2343C9.43353 14.8552 10.7238 15.3341 12.7085 14.3822C13.2361 14.1053 13.8229 13.9606 14.4187 13.9606C15.0145 13.9606 15.6014 14.1053 16.1289 14.3822C16.7307 14.7013 17.3977 14.8779 18.0785 14.8984L22.3239 20.0803C22.5143 20.3144 22.6346 20.5976 22.6708 20.8971C22.707 21.1967 22.6577 21.5004 22.5286 21.7731C22.3994 22.0458 22.1957 22.2764 21.941 22.4382C21.6863 22.6001 21.391 22.6865 21.0893 22.6875H9.87151C9.72232 22.6875 9.57925 22.7468 9.47376 22.8523C9.36827 22.9577 9.30901 23.1008 9.30901 23.25C9.30901 23.3992 9.36827 23.5423 9.47376 23.6477C9.57925 23.7532 9.72232 23.8125 9.87151 23.8125H21.0893C21.6038 23.8108 22.1073 23.6636 22.5416 23.3877C22.9759 23.1118 23.3233 22.7186 23.5434 22.2536C23.7636 21.7886 23.8477 21.2707 23.7858 20.7599C23.724 20.2492 23.5188 19.7663 23.1941 19.3672V19.3672ZM7.87271 2.53125V1.3125H16.1227V2.53125H7.87271Z" fill="black"/>
</svg>
