<svg width="24" height="24" viewBox="0 0 24 24" fill="none" xmlns="http://www.w3.org/2000/svg">
<g clip-path="url(#clip0_2_755)">
<mask id="path-1-inside-1_2_755" fill="white">
<path d="M12 0C9.52467 0 7.1507 0.983331 5.40036 2.73367C3.65002 4.48401 2.66669 6.85798 2.66669 9.33333C2.66669 14.8064 7.56401 20.0462 10.2637 22.5189C11.2594 23.4308 12.7407 23.4308 13.7363 22.5189C16.436 20.0462 21.3334 14.8064 21.3334 9.33333C21.3334 6.85798 20.35 4.48401 18.5997 2.73367C16.8493 0.983331 14.4754 0 12 0ZM15.1111 8.88889V12.3333C15.1111 12.8856 14.6634 13.3333 14.1111 13.3333H13.8889C13.3366 13.3333 12.8889 12.8856 12.8889 12.3333V11.1111C12.8889 10.8754 12.7953 10.6493 12.6286 10.4826C12.4619 10.3159 12.2358 10.2222 12 10.2222C11.7643 10.2222 11.5382 10.3159 11.3715 10.4826C11.2048 10.6493 11.1111 10.8754 11.1111 11.1111V12.3333C11.1111 12.8856 10.6634 13.3333 10.1111 13.3333H9.88891C9.33662 13.3333 8.88891 12.8856 8.88891 12.3333V8.88889C8.29252 8.88889 8.02548 8.14079 8.48706 7.76313L11.3668 5.40699C11.7351 5.1056 12.2649 5.1056 12.6333 5.40699L15.513 7.76313C15.9746 8.14079 15.7075 8.88889 15.1111 8.88889Z"/>
</mask>
<path d="M12 0V-1.5V0ZM2.66669 9.33333H1.16669H2.66669ZM21.3334 9.33333H22.8334H21.3334ZM8.48706 7.76313L9.43691 8.92407L8.48706 7.76313ZM10.2637 22.5189L9.25056 23.625L10.2637 22.5189ZM13.7363 22.5189L12.7232 21.4127L13.7363 22.5189ZM12.6333 5.40699L11.6834 6.56793L12.6333 5.40699ZM15.513 7.76313L14.5631 8.92407L15.513 7.76313ZM12 -1.5C9.12684 -1.5 6.37134 -0.358634 4.3397 1.67301L6.46102 3.79433C7.93005 2.3253 9.92249 1.5 12 1.5V-1.5ZM4.3397 1.67301C2.30805 3.70465 1.16669 6.46015 1.16669 9.33333H4.16669C4.16669 7.2558 4.99198 5.26337 6.46102 3.79433L4.3397 1.67301ZM1.16669 9.33333C1.16669 12.5 2.5729 15.4769 4.21133 17.8931C5.86327 20.3292 7.85433 22.3462 9.25056 23.625L11.2768 21.4127C9.97339 20.2189 8.16594 18.3796 6.69429 16.2094C5.20913 14.0192 4.16669 11.6397 4.16669 9.33333H1.16669ZM14.7495 23.625C16.1457 22.3462 18.1368 20.3292 19.7887 17.8931C21.4271 15.4769 22.8334 12.5 22.8334 9.33333H19.8334C19.8334 11.6397 18.7909 14.0192 17.3057 16.2094C15.8341 18.3796 14.0267 20.2189 12.7232 21.4127L14.7495 23.625ZM22.8334 9.33333C22.8334 6.46015 21.692 3.70465 19.6603 1.67301L17.539 3.79433C19.0081 5.26337 19.8334 7.2558 19.8334 9.33333H22.8334ZM19.6603 1.67301C17.6287 -0.358634 14.8732 -1.5 12 -1.5V1.5C14.0775 1.5 16.07 2.3253 17.539 3.79433L19.6603 1.67301ZM13.6111 8.88889V12.3333H16.6111V8.88889H13.6111ZM14.1111 11.8333H13.8889V14.8333H14.1111V11.8333ZM14.3889 12.3333V11.1111H11.3889V12.3333H14.3889ZM14.3889 11.1111C14.3889 10.4775 14.1372 9.86992 13.6892 9.42191L11.5679 11.5432C11.4533 11.4286 11.3889 11.2732 11.3889 11.1111H14.3889ZM13.6892 9.42191C13.2412 8.97391 12.6336 8.72222 12 8.72222V11.7222C11.8379 11.7222 11.6825 11.6578 11.5679 11.5432L13.6892 9.42191ZM12 8.72222C11.3664 8.72222 10.7588 8.97391 10.3108 9.42191L12.4321 11.5432C12.3175 11.6578 12.1621 11.7222 12 11.7222V8.72222ZM10.3108 9.42191C9.86282 9.86991 9.61113 10.4775 9.61113 11.1111H12.6111C12.6111 11.2732 12.5467 11.4286 12.4321 11.5432L10.3108 9.42191ZM9.61113 11.1111V12.3333H12.6111V11.1111H9.61113ZM10.1111 11.8333H9.88891V14.8333H10.1111V11.8333ZM10.3889 12.3333V8.88889H7.38891V12.3333H10.3889ZM9.43691 8.92407L12.3166 6.56793L10.4169 4.24606L7.5372 6.6022L9.43691 8.92407ZM11.6834 6.56793L14.5631 8.92407L16.4628 6.6022L13.5831 4.24606L11.6834 6.56793ZM8.88891 7.38889C9.7022 7.38889 10.0664 8.40907 9.43691 8.92407L7.5372 6.6022C5.98459 7.87251 6.88284 10.3889 8.88891 10.3889V7.38889ZM9.88891 11.8333C10.1651 11.8333 10.3889 12.0572 10.3889 12.3333H7.38891C7.38891 13.714 8.5082 14.8333 9.88891 14.8333V11.8333ZM9.25056 23.625C10.8196 25.0621 13.1805 25.0621 14.7495 23.625L12.7232 21.4127C12.3009 21.7995 11.6992 21.7995 11.2768 21.4127L9.25056 23.625ZM9.61113 12.3333C9.61113 12.0572 9.83499 11.8333 10.1111 11.8333V14.8333C11.4918 14.8333 12.6111 13.714 12.6111 12.3333H9.61113ZM12.3166 6.56793C12.1325 6.71862 11.8676 6.71862 11.6834 6.56793L13.5831 4.24606C12.6622 3.49258 11.3378 3.49258 10.4169 4.24606L12.3166 6.56793ZM13.6111 12.3333C13.6111 12.0572 13.835 11.8333 14.1111 11.8333V14.8333C15.4918 14.8333 16.6111 13.714 16.6111 12.3333H13.6111ZM14.5631 8.92407C13.9337 8.40907 14.2978 7.38889 15.1111 7.38889V10.3889C17.1172 10.3889 18.0154 7.87251 16.4628 6.6022L14.5631 8.92407ZM13.8889 11.8333C14.1651 11.8333 14.3889 12.0572 14.3889 12.3333H11.3889C11.3889 13.714 12.5082 14.8333 13.8889 14.8333V11.8333Z" fill="black" mask="url(#path-1-inside-1_2_755)"/>
</g>
<defs>
<clipPath id="clip0_2_755">
<rect width="24" height="24" fill="white"/>
</clipPath>
</defs>
</svg>
