<svg width="104" height="104" viewBox="0 0 104 104" fill="none" xmlns="http://www.w3.org/2000/svg">
<g clip-path="url(#clip0_96_4264)">
<path d="M96.5714 14.8569H7.42858C3.32766 14.8614 0.00444899 18.1846 1.98114e-08 22.2855V43.7458C-0.000171094 45.1132 1.10814 46.2218 2.47551 46.222H2.47619H99.0476V81.714C99.0461 83.0809 97.9384 84.1887 96.5714 84.1902H7.42858C6.06172 84.1887 4.95393 83.0811 4.95239 81.714V78.4124C4.95239 77.0448 3.84374 75.9362 2.47619 75.9362C1.10865 75.9362 1.98114e-08 77.0448 1.98114e-08 78.4124V81.714C0.00444899 85.8148 3.32766 89.1382 7.42858 89.1426H96.5714C100.672 89.1382 103.996 85.8149 104 81.714V22.2855C103.995 18.1846 100.672 14.8614 96.5714 14.8569ZM7.42858 19.8093H96.5714C97.9384 19.8109 99.0461 20.9185 99.0476 22.2855V26.4125H4.95239V22.2855C4.95393 20.9185 6.06155 19.8107 7.42858 19.8093ZM4.95239 41.2696V31.3648H99.0476V41.2696H4.95239Z" fill="black"/>
<path d="M2.47619 51.1743H51.9999C53.3675 51.1743 54.4761 52.283 54.4761 53.6505V68.5077C54.4761 69.8752 53.3675 70.9839 51.9999 70.9839H2.47619C1.10865 70.9837 0 69.8751 0 68.5075V53.6503C0 52.283 1.10865 51.1743 2.47619 51.1743Z" fill="#8870E6"/>
</g>
<defs>
<clipPath id="clip0_96_4264">
<rect width="104" height="104" fill="white"/>
</clipPath>
</defs>
</svg>
