<svg width="20" height="20" viewBox="0 0 20 20" fill="none" xmlns="http://www.w3.org/2000/svg">
<path d="M19.4385 6.02513C19.6595 5.75996 19.6236 5.36585 19.3585 5.14488C19.0933 4.9239 18.6992 4.95973 18.4782 5.2249L13.986 10.6156C13.0836 11.6984 12.4488 12.4578 11.8983 12.955C11.3605 13.4406 10.9894 13.5949 10.625 13.5949C10.2606 13.5949 9.88952 13.4406 9.35178 12.955C8.80119 12.4578 8.16641 11.6984 7.26405 10.6156L6.10515 9.2249C5.88418 8.95973 5.49007 8.9239 5.2249 9.14488C4.95973 9.36586 4.9239 9.75996 5.14488 10.0251L6.33593 11.4544C7.19866 12.4897 7.88956 13.3188 8.51403 13.8827C9.15908 14.4652 9.81846 14.8449 10.625 14.8449C11.4316 14.8449 12.091 14.4652 12.736 13.8827C13.3605 13.3188 14.0514 12.4897 14.9141 11.4544L19.4385 6.02513Z" fill="#8870E6"/>
<rect x="4.16669" y="6.6665" width="5.83333" height="8.33333" rx="2.91667" fill="white"/>
<path d="M14.4385 6.23363C14.6595 5.96845 14.6236 5.57435 14.3585 5.35337C14.0933 5.1324 13.6992 5.16822 13.4782 5.4334L8.98598 10.8241C8.08362 11.9069 7.44884 12.6663 6.89825 13.1635C6.36051 13.6491 5.9894 13.8034 5.62502 13.8034C5.26063 13.8034 4.88952 13.6491 4.35178 13.1635C3.80119 12.6663 3.16641 11.9069 2.26405 10.8241L1.10515 9.4334C0.884177 9.16822 0.490074 9.1324 0.2249 9.35337C-0.0402726 9.57435 -0.0761002 9.96845 0.144877 10.2336L1.33593 11.6629C2.19866 12.6982 2.88956 13.5273 3.51403 14.0912C4.15908 14.6737 4.81846 15.0534 5.62502 15.0534C6.43157 15.0534 7.09095 14.6737 7.736 14.0912C8.36046 13.5273 9.05136 12.6982 9.91407 11.6629L14.4385 6.23363Z" fill="#8870E6"/>
</svg>
