<svg width="141" height="89" viewBox="0 0 141 89" fill="none" xmlns="http://www.w3.org/2000/svg">
<path d="M138.606 37.4518H101.458C100.917 37.4517 100.392 37.6252 99.9645 37.9449C99.5375 38.2646 99.2332 38.7123 99.1 39.2172L89.7585 74.5719L79.1009 1.97697C79.0145 1.4666 78.7561 0.997793 78.3657 0.64283C77.9753 0.287867 77.4744 0.0664613 76.9404 0.0127488C76.4065 -0.0409638 75.8689 0.0760005 75.4108 0.345608C74.9526 0.615215 74.5993 1.02249 74.4052 1.50464L52.337 59.9664L41.9015 20.4724C41.7784 20.0336 41.5263 19.6385 41.1756 19.3345C40.8248 19.0305 40.3903 18.8306 39.9244 18.7588C39.4584 18.687 38.9809 18.7464 38.5492 18.9299C38.1175 19.1133 37.75 19.413 37.4909 19.7929L25.8249 37.4518H2.39529C1.75661 37.4614 1.14744 37.7124 0.6993 38.1508C0.251155 38.5892 -1.91616e-05 39.1798 1.0964e-09 39.795C1.91638e-05 40.4102 0.251231 41.0007 0.699402 41.4391C1.14757 41.8775 1.75676 42.1285 2.39544 42.138H27.16C27.5694 42.1379 27.9721 42.0384 28.3309 41.8486C28.6897 41.6588 28.993 41.3849 29.2127 41.0523L38.5743 26.8816L49.5681 68.4899C49.6965 68.9752 49.983 69.4081 50.3855 69.7252C50.7881 70.0423 51.2855 70.2269 51.8049 70.2518C52.3243 70.2768 52.8383 70.1408 53.2716 69.8639C53.7049 69.5869 54.0347 69.1836 54.2126 68.713L75.6477 11.9283L86.6664 86.9853C86.7454 87.5226 87.0157 88.0169 87.4309 88.3837C87.8462 88.7505 88.3808 88.9671 88.9435 88.9966C89.5061 89.026 90.0619 88.8664 90.516 88.5451C90.9701 88.2238 91.2943 87.7606 91.4333 87.2347L103.349 42.138H138.606C139.245 42.1281 139.853 41.8769 140.301 41.4385C140.749 41.0002 141 40.4099 141 39.7949C141 39.1799 140.749 38.5896 140.301 38.1513C139.853 37.7129 139.245 37.4617 138.606 37.4518V37.4518Z" fill="#8870E6"/>
</svg>
