<svg width="30" height="30" viewBox="0 0 30 30" fill="none" xmlns="http://www.w3.org/2000/svg">
<path d="M0.277172 8.84994L2.26667 24.2386C2.4768 25.7736 3.23708 27.1801 4.40622 28.1966C5.57536 29.2132 7.07383 29.7708 8.62312 29.7656H21.3769C22.9261 29.7708 24.4245 29.2133 25.5936 28.1968C26.7628 27.1803 27.5231 25.774 27.7333 24.2391L29.7228 8.8495C29.8117 8.11929 29.7439 7.37851 29.524 6.67654C29.3042 5.97456 28.9372 5.3275 28.4477 4.77846C27.9581 4.22942 27.3572 3.791 26.6849 3.49242C26.0126 3.19384 25.2844 3.04195 24.5488 3.04687H24.4932C24.4001 3.04569 24.3077 3.06301 24.2214 3.09782C24.135 3.13262 24.0565 3.18423 23.9902 3.24964C23.924 3.31504 23.8714 3.39295 23.8355 3.47885C23.7996 3.56474 23.7811 3.6569 23.7811 3.74999C23.7811 3.84309 23.7996 3.93525 23.8355 4.02114C23.8714 4.10704 23.924 4.18495 23.9902 4.25035C24.0565 4.31576 24.135 4.36737 24.2214 4.40217C24.3077 4.43698 24.4001 4.4543 24.4932 4.45312H24.5488C25.0836 4.44954 25.6129 4.55996 26.1016 4.77702C26.5904 4.99408 27.0272 5.31279 27.3831 5.71192C27.739 6.11106 28.0057 6.58145 28.1655 7.09176C28.3253 7.60206 28.3746 8.14057 28.31 8.6714L26.3205 24.061C26.157 25.2548 25.5657 26.3486 24.6565 27.1392C23.7472 27.9298 22.5818 28.3634 21.3769 28.3594H8.62312C7.41814 28.3634 6.25269 27.9297 5.3434 27.139C4.43411 26.3483 3.84285 25.2544 3.67952 24.0605L1.69003 8.67187C1.62537 8.14101 1.67458 7.60246 1.83438 7.09212C1.99419 6.58177 2.26091 6.11133 2.61679 5.71215C2.97267 5.31298 3.40953 4.99422 3.89826 4.77712C4.387 4.56002 4.91639 4.44957 5.45116 4.45312H5.50678C5.59986 4.4543 5.69226 4.43698 5.7786 4.40217C5.86493 4.36737 5.9435 4.31576 6.00974 4.25035C6.07598 4.18495 6.12858 4.10704 6.16447 4.02114C6.20037 3.93525 6.21886 3.84309 6.21886 3.74999C6.21886 3.6569 6.20037 3.56474 6.16447 3.47885C6.12858 3.39295 6.07598 3.31504 6.00974 3.24964C5.9435 3.18423 5.86493 3.13262 5.7786 3.09782C5.69226 3.06301 5.59986 3.04569 5.50678 3.04687H5.45116C4.71553 3.04194 3.98729 3.19384 3.31497 3.49244C2.64266 3.79105 2.04169 4.2295 1.55213 4.7786C1.06256 5.32769 0.695629 5.97481 0.475786 6.67684C0.255943 7.37887 0.188235 8.11969 0.277172 8.84994Z" fill="black"/>
<path d="M17.6024 13.4042L16.5532 18.6488C16.4813 19.0078 16.2873 19.3309 16.0041 19.563C15.7209 19.7951 15.3661 19.9219 15 19.9219C14.6338 19.9219 14.279 19.7951 13.9958 19.563C13.7127 19.3309 13.5186 19.0078 13.4468 18.6488L12.3976 13.4042C12.2161 12.4966 11.6877 11.6956 10.9248 11.1715C10.1618 10.6474 9.22452 10.4416 8.31221 10.5979C7.39989 10.7542 6.58454 11.2602 6.03953 12.0084C5.49452 12.7565 5.26287 13.6877 5.39382 14.604L6.45858 22.0601C6.58198 22.8963 7.00099 23.6605 7.63962 24.2143C8.27824 24.768 9.09418 25.0745 9.93942 25.0781H20.0606C20.9059 25.0744 21.7219 24.7679 22.3605 24.2141C22.9991 23.6603 23.4181 22.8959 23.5414 22.0596L24.6062 14.604C24.7371 13.6877 24.5055 12.7565 23.9605 12.0084C23.4154 11.2602 22.6001 10.7542 21.6878 10.5979C20.7755 10.4416 19.8382 10.6474 19.0752 11.1715C18.3123 11.6956 17.7839 12.4966 17.6024 13.4042ZM21.0873 11.9531C21.3951 11.9531 21.6993 12.0192 21.9793 12.1471C22.2593 12.2749 22.5086 12.4614 22.7102 12.6939C22.9119 12.9264 23.0612 13.1996 23.148 13.4949C23.2349 13.7902 23.2573 14.1007 23.2136 14.4054L22.1489 21.8605C22.0751 22.3623 21.8238 22.821 21.4406 23.1534C21.0574 23.4857 20.5678 23.6697 20.0606 23.6719H9.93942C9.43227 23.6697 8.94269 23.4858 8.55954 23.1535C8.17638 22.8213 7.92503 22.3627 7.85109 21.8609L6.78634 14.4054C6.70709 13.8516 6.847 13.2888 7.17631 12.8366C7.50562 12.3844 7.99834 12.0785 8.54969 11.984C9.10104 11.8895 9.66751 12.0138 10.1286 12.3305C10.5897 12.6472 10.9091 13.1313 11.0188 13.6798L12.068 18.9244C12.2036 19.6022 12.5698 20.2121 13.1043 20.6504C13.6389 21.0886 14.3088 21.3281 15 21.3281C15.6912 21.3281 16.3611 21.0886 16.8957 20.6504C17.4302 20.2121 17.7964 19.6022 17.932 18.9244L18.9812 13.6798C19.0795 13.1934 19.3428 12.7558 19.7266 12.4412C20.1104 12.1266 20.5911 11.9542 21.0873 11.9531Z" fill="black"/>
<path d="M15 0.234375C12.8252 0.236856 10.7401 1.10191 9.20226 2.63976C7.66441 4.1776 6.79936 6.26266 6.79688 8.4375C6.79692 8.62397 6.87102 8.80278 7.00287 8.93463C7.13472 9.06648 7.31353 9.14058 7.5 9.14062H11.965C11.959 9.06303 11.9531 8.98538 11.9531 8.90625C11.9535 8.22081 12.1851 7.55554 12.6104 7.01802C13.0357 6.48049 13.6299 6.10215 14.2969 5.94418V3.75C14.2969 3.56352 14.371 3.38468 14.5028 3.25282C14.6347 3.12095 14.8135 3.04688 15 3.04688C15.1865 3.04688 15.3653 3.12095 15.4972 3.25282C15.629 3.38468 15.7031 3.56352 15.7031 3.75V5.94418C16.3701 6.10215 16.9643 6.4805 17.3896 7.01802C17.8149 7.55554 18.0465 8.22081 18.0469 8.90625C18.0469 8.98538 18.041 9.06303 18.035 9.14062H22.5C22.6865 9.14058 22.8653 9.06648 22.9971 8.93463C23.129 8.80278 23.2031 8.62397 23.2031 8.4375C23.2006 6.26266 22.3356 4.1776 20.7977 2.63976C19.2599 1.10191 17.1748 0.236856 15 0.234375Z" fill="#FFC224"/>
<path d="M15 10.7812C16.0355 10.7812 16.875 9.94178 16.875 8.90625C16.875 7.87072 16.0355 7.03125 15 7.03125C13.9645 7.03125 13.125 7.87072 13.125 8.90625C13.125 9.94178 13.9645 10.7812 15 10.7812Z" fill="#FFC224"/>
</svg>
