<svg xmlns="http://www.w3.org/2000/svg" width="20" height="20" viewBox="0 0 20 20" fill="none">
<path d="M12.0833 6.66679C12.0833 4.36561 10.2178 2.50012 7.91667 2.50012C5.61548 2.50012 3.75 4.36561 3.75 6.66679C3.75 8.96796 5.61548 10.8335 7.91667 10.8335C10.2178 10.8335 12.0833 8.96796 12.0833 6.66679Z" stroke="#7C4DFF" stroke-width="1.5" stroke-linecap="round" stroke-linejoin="round"/>
<path d="M2.08337 16.6668C2.08337 13.4452 4.69505 10.8335 7.91671 10.8335C8.81137 10.8335 9.65896 11.0349 10.4167 11.3948" stroke="#7C4DFF" stroke-width="1.5" stroke-linecap="round" stroke-linejoin="round"/>
<path opacity="0.4" d="M12.9584 12.5417L17.0417 16.6251M17.9167 14.5834C17.9167 12.9726 16.6109 11.6667 15 11.6667C13.3892 11.6667 12.0834 12.9726 12.0834 14.5834C12.0834 16.1942 13.3892 17.5001 15 17.5001C16.6109 17.5001 17.9167 16.1942 17.9167 14.5834Z" stroke="#7C4DFF" stroke-width="1.5" stroke-linecap="round" stroke-linejoin="round"/>
</svg>