<svg xmlns="http://www.w3.org/2000/svg" width="20" height="20" viewBox="0 0 20 20" fill="none">
<path d="M13.6609 11.1544L13.6562 11.1525C13.597 11.1271 13.5398 11.0981 13.4797 11.0746C14.1504 10.5487 14.693 9.87722 15.0663 9.11106C15.4395 8.34472 15.6336 7.50356 15.634 6.65122C15.6318 6.45339 15.6177 6.25581 15.5918 6.05956C15.6062 6.02222 15.6182 5.98397 15.6274 5.94497L15.8913 3.69389C15.9737 2.98256 15.7826 2.26647 15.3568 1.69072C14.931 1.11497 14.3023 0.722555 13.598 0.592972L12.8561 0.458639C10.9675 0.113722 9.03201 0.113722 7.14334 0.458639L6.40051 0.592972C5.69626 0.722555 5.06751 1.11497 4.64176 1.69072C4.21592 2.26647 4.02484 2.98256 4.10717 3.69389L4.37009 5.94497C4.37976 5.98397 4.39201 6.02222 4.40676 6.05956C4.38092 6.25581 4.36676 6.45339 4.36451 6.65122C4.36492 7.50356 4.55901 8.34472 4.93226 9.11106C5.30551 9.87722 5.84801 10.5487 6.51884 11.0746C6.45876 11.0981 6.40142 11.1271 6.34226 11.1525L6.33759 11.1544C4.80017 11.8006 3.46376 12.8466 2.46717 14.1838C1.47051 15.5209 0.850007 17.1005 0.670007 18.7585C0.64659 19.0041 0.720924 19.2491 0.876757 19.4406C1.03267 19.632 1.25759 19.7542 1.50301 19.781C1.74834 19.8078 1.99434 19.7369 2.18792 19.5837C2.38142 19.4304 2.50676 19.2072 2.53692 18.9623C2.66909 17.7434 3.09951 16.5758 3.79009 15.5627C4.48059 14.5497 5.41009 13.7223 6.49634 13.1538L9.33526 15.9927C9.51142 16.1688 9.75026 16.2677 9.99926 16.2677C10.2483 16.2677 10.4871 16.1688 10.6632 15.9927L13.5022 13.1538C14.5885 13.7223 15.5179 14.5497 16.2085 15.5627C16.899 16.5758 17.3294 17.7434 17.4616 18.9623C17.4865 19.1921 17.5953 19.4046 17.7673 19.5592C17.9392 19.7138 18.162 19.7995 18.3932 19.8C18.4278 19.7999 18.4622 19.798 18.4964 19.7943C18.6191 19.781 18.738 19.7436 18.8462 19.6844C18.9543 19.6251 19.0499 19.545 19.1272 19.4488C19.2045 19.3526 19.262 19.2421 19.2966 19.1237C19.3311 19.0052 19.3419 18.8811 19.3285 18.7585C19.1485 17.1004 18.5278 15.5207 17.5309 14.1836C16.5342 12.8464 15.1986 11.8005 13.6609 11.1544ZM5.97226 3.47414C5.94501 3.23714 6.00876 2.99864 6.15067 2.80681C6.29259 2.61506 6.50209 2.48431 6.73676 2.44114L7.47867 2.30681C9.14526 2.00231 10.8533 2.00231 12.5198 2.30681L13.2618 2.44114C13.4964 2.48431 13.7059 2.61506 13.8478 2.80681C13.9898 2.99864 14.0536 3.23714 14.0263 3.47414L13.8591 4.89597H6.13942L5.97226 3.47414ZM9.99926 14.0018L8.44967 12.4513C9.47109 12.2317 10.5274 12.2317 11.5488 12.4513L9.99926 14.0018ZM9.99926 10.4087C9.02442 10.4076 8.08817 10.028 7.38776 9.34989C6.68734 8.67197 6.27751 7.74856 6.24467 6.77422H13.7538C13.721 7.74856 13.3112 8.67197 12.6108 9.34989C11.9103 10.028 10.9741 10.4076 9.99926 10.4087Z" fill="white"/>
</svg>