<svg xmlns="http://www.w3.org/2000/svg" width="20" height="20" viewBox="0 0 20 20" fill="none">
<g clip-path="url(#clip0_6232_6094)">
<path d="M3.55655 15.704C3.74395 17.0959 4.89682 18.1863 6.29976 18.2508C7.48027 18.3051 8.67946 18.3334 10 18.3334C11.3206 18.3334 12.5198 18.3051 13.7003 18.2508C15.1033 18.1863 16.2561 17.0959 16.4435 15.704C16.5659 14.7956 16.6667 13.8647 16.6667 12.9167C16.6667 11.9687 16.5659 11.0378 16.4435 10.1295C16.2561 8.73756 15.1033 7.64714 13.7003 7.58264C12.5198 7.52837 11.3206 7.50006 10 7.50006C8.67946 7.50006 7.48027 7.52837 6.29976 7.58264C4.89682 7.64714 3.74395 8.73756 3.55655 10.1295C3.43425 11.0378 3.33337 11.9687 3.33337 12.9167C3.33337 13.8647 3.43425 14.7956 3.55655 15.704Z" stroke="#7C4DFF" stroke-width="1.5"/>
<path d="M6.25 7.50008V5.41675C6.25 3.34568 7.92893 1.66675 10 1.66675C12.0711 1.66675 13.75 3.34568 13.75 5.41675V7.50008" stroke="#7C4DFF" stroke-width="1.5" stroke-linecap="round" stroke-linejoin="round"/>
<path opacity="0.4" d="M13.3334 12.9084V12.9167" stroke="#7C4DFF" stroke-width="1.5" stroke-linecap="round" stroke-linejoin="round"/>
<path opacity="0.4" d="M10 12.9084V12.9167" stroke="#7C4DFF" stroke-width="1.5" stroke-linecap="round" stroke-linejoin="round"/>
<path opacity="0.4" d="M6.66663 12.9084V12.9167" stroke="#7C4DFF" stroke-width="1.5" stroke-linecap="round" stroke-linejoin="round"/>
</g>
<defs>
<clipPath id="clip0_6232_6094">
<rect width="20" height="20" fill="white"/>
</clipPath>
</defs>
</svg>