<svg xmlns="http://www.w3.org/2000/svg" width="20" height="20" viewBox="0 0 20 20" fill="none">
<path d="M13.8422 14.7163L12.9167 18.3333L15 17.5L17.0833 18.3333L16.25 14.6656M17.5 12.5C17.5 13.8807 16.3807 15 15 15C13.6192 15 12.5 13.8807 12.5 12.5C12.5 11.1192 13.6192 10 15 10C16.3807 10 17.5 11.1192 17.5 12.5Z" stroke="#7C4DFF" stroke-width="1.5" stroke-linecap="round" stroke-linejoin="round"/>
<path opacity="0.4" d="M16.6666 8.33329C16.6666 5.19059 16.6666 3.61925 15.6903 2.64293C14.714 1.66663 13.1426 1.66663 9.99994 1.66663H9.16669C6.02403 1.66663 4.45268 1.66663 3.47638 2.64293C2.50007 3.61923 2.50006 5.19056 2.50003 8.33323L2.5 11.6665C2.49998 14.8093 2.49996 16.3806 3.47627 17.357C4.45258 18.3333 6.02394 18.3333 9.16669 18.3333H10.8333" stroke="#7C4DFF" stroke-width="1.5" stroke-linecap="round" stroke-linejoin="round"/>
<path d="M6.25 5.83337H12.9167M6.25 10H10" stroke="#7C4DFF" stroke-width="1.5" stroke-linecap="round" stroke-linejoin="round"/>
</svg>