<svg xmlns="http://www.w3.org/2000/svg" width="20" height="20" viewBox="0 0 20 20" fill="none">
<path opacity="0.4" d="M1.66663 10.4167C1.66663 9.49617 2.41282 8.75 3.33329 8.75C4.714 8.75 5.83329 9.86925 5.83329 11.25V14.5833C5.83329 15.9641 4.714 17.0833 3.33329 17.0833C2.41282 17.0833 1.66663 16.3372 1.66663 15.4167V10.4167Z" stroke="#7C4DFF" stroke-width="1.5" stroke-linecap="round" stroke-linejoin="round"/>
<path d="M12.899 6.50518L12.677 7.22191C12.4952 7.80922 12.4043 8.10287 12.4742 8.33479C12.5308 8.52238 12.655 8.68413 12.8242 8.79054C13.0334 8.92204 13.3498 8.92204 13.9826 8.92204H14.3193C16.461 8.92204 17.5319 8.92204 18.0377 9.55604C18.0955 9.62846 18.1469 9.70554 18.1914 9.78638C18.5805 10.4934 18.1381 11.4459 17.2534 13.3509C16.4415 15.099 16.0355 15.9731 15.2817 16.4876C15.2088 16.5374 15.1338 16.5844 15.057 16.6284C14.2634 17.0833 13.2802 17.0833 11.3137 17.0833H10.8872C8.50479 17.0833 7.31361 17.0833 6.57349 16.3662C5.83337 15.649 5.83337 14.4949 5.83337 12.1865V11.3752C5.83337 10.1621 5.83337 9.55563 6.04866 9.00046C6.26394 8.44529 6.67617 7.98883 7.50062 7.07589L10.9101 3.30043C10.9956 3.20574 11.0384 3.15839 11.0761 3.12559C11.428 2.81936 11.971 2.85383 12.2787 3.20192C12.3117 3.23921 12.3477 3.29155 12.4197 3.39624C12.5324 3.56 12.5887 3.64188 12.6379 3.723C13.0774 4.44923 13.2104 5.31193 13.009 6.13092C12.9865 6.22239 12.9574 6.31671 12.899 6.50518Z" stroke="#7C4DFF" stroke-width="1.5" stroke-linecap="round" stroke-linejoin="round"/>
</svg>