<svg xmlns="http://www.w3.org/2000/svg" width="20" height="20" viewBox="0 0 20 20" fill="none">
<g clip-path="url(#clip0_6232_6085)">
<path d="M18.3333 10C18.3333 5.39765 14.6023 1.66669 9.99996 1.66669C5.39758 1.66669 1.66663 5.39765 1.66663 10C1.66663 14.6024 5.39758 18.3334 9.99996 18.3334C14.6023 18.3334 18.3333 14.6024 18.3333 10Z" stroke="#7C4DFF" stroke-width="1.5"/>
<path opacity="0.4" d="M10.7199 6.43506L11.4531 7.91368C11.5531 8.11952 11.8198 8.31694 12.0447 8.35473L13.3738 8.5774C14.2237 8.72023 14.4236 9.3419 13.8112 9.95515L12.778 10.997C12.603 11.1734 12.5072 11.5136 12.5614 11.7572L12.8571 13.0468C13.0905 14.0676 12.553 14.4625 11.6573 13.929L10.4116 13.1855C10.1866 13.0511 9.81579 13.0511 9.58671 13.1855L8.34096 13.929C7.44942 14.4625 6.90781 14.0634 7.14112 13.0468L7.43692 11.7572C7.49108 11.5136 7.39526 11.1734 7.22028 10.997L6.18706 9.95515C5.57879 9.3419 5.7746 8.72023 6.62451 8.5774L7.95353 8.35473C8.17434 8.31694 8.44096 8.11952 8.54096 7.91368L9.27421 6.43506C9.67421 5.63273 10.3241 5.63273 10.7199 6.43506Z" stroke="#7C4DFF" stroke-width="1.5" stroke-linecap="round" stroke-linejoin="round"/>
</g>
<defs>
<clipPath id="clip0_6232_6085">
<rect width="20" height="20" fill="white"/>
</clipPath>
</defs>
</svg>