<svg xmlns="http://www.w3.org/2000/svg" width="16" height="17" viewBox="0 0 16 17" fill="none">
<path d="M3.16025 10.079L4.46234 9.1544C4.82963 8.8936 5.20203 8.7188 5.62689 8.60567C6.11467 8.47574 6.33333 8.2096 6.33333 7.64067C6.33333 6.19752 9.66667 6.04396 9.66667 7.64067C9.66667 8.2096 9.88533 8.47574 10.3731 8.60567C10.8013 8.71967 11.1733 8.8956 11.5377 9.1544L12.8397 10.079C13.4289 10.4974 13.7031 10.6997 13.8561 11.0213C14 11.3239 14 11.6787 14 12.3883C14 13.6641 14 14.302 13.6428 14.7109C13.2101 15.2062 12.0853 15.1637 11.3945 15.1637H4.60555C3.91465 15.1637 2.81273 15.2324 2.3572 14.7109C2 14.302 2 13.6641 2 12.3883C2 11.6787 2 11.3239 2.14389 11.0213C2.29684 10.6997 2.57108 10.4974 3.16025 10.079Z" stroke="#7C4DFF" stroke-width="1.5"/>
<path opacity="0.4" d="M9.33329 11.8333C9.33329 12.5697 8.73636 13.1667 7.99996 13.1667C7.26356 13.1667 6.66663 12.5697 6.66663 11.8333C6.66663 11.0969 7.26356 10.5 7.99996 10.5C8.73636 10.5 9.33329 11.0969 9.33329 11.8333Z" stroke="#7C4DFF" stroke-width="1.5"/>
<path opacity="0.4" d="M4.64013 2.96515C3.76118 3.2161 3.12927 3.52741 2.55101 3.90303C1.63549 4.49773 1.24299 5.56936 1.35075 6.60342C1.3963 7.04045 1.74713 7.2494 2.15397 7.13637C2.46305 7.05047 2.77263 6.96686 3.07978 6.87576C3.97808 6.60931 4.18937 6.28541 4.3142 5.3659L4.64013 2.96515ZM4.64013 2.96515C6.81244 2.34495 9.18764 2.34495 11.36 2.96515M11.36 2.96515C12.2389 3.2161 12.8708 3.52741 13.449 3.90303C14.3646 4.49773 14.7571 5.56936 14.6493 6.60342C14.6038 7.04045 14.253 7.2494 13.8461 7.13637C13.537 7.05047 13.2274 6.96686 12.9203 6.87576C12.022 6.60931 11.8107 6.28541 11.6859 5.3659L11.36 2.96515Z" stroke="#7C4DFF" stroke-width="1.5" stroke-linejoin="round"/>
</svg>